<svg width="58" height="25" viewBox="0 0 58 25" fill="none" xmlns="http://www.w3.org/2000/svg">
<rect width="58" height="24.0415" fill="#EC111A"/>
<path d="M1.95361 2.40417V21.6373H5.40957L5.55983 13.0726L7.06242 21.6373H9.01579L10.5184 13.0726V21.6373H17.1298L17.5806 18.7824H20.2852L20.736 21.6373H27.4977V15.4767H28.249L29.7515 21.6373H33.2075L31.1039 14.4249C32.2881 13.2354 32.8475 12.4377 33.2075 10.2176L35.1609 21.6373H39.3681L42.0728 4.65806V21.6373H48.6842V18.1814H45.5287V13.8239H48.6842V10.2176H45.5287V6.01039H48.6842V2.40417H38.9173L37.2645 14.7254L35.9122 2.40417H32.0054L32.3059 5.2591C31.7049 3.75651 29.7515 2.40417 28.5495 2.40417H23.8914V19.2332L21.4873 2.40417H16.679L14.1246 19.8342V2.40417H9.61683L7.96398 11.8705L6.31113 2.40417H1.95361Z" fill="white"/>
<path d="M49.2852 21.6373V2.40417H52.7412V18.3316H55.7464V21.6373H49.2852Z" fill="white"/>
<path d="M19.0831 7.66315L18.0312 15.3264H20.1349L19.0831 7.66315Z" fill="#EC111A"/>
<path d="M27.4976 11.7201V5.70978C28.8815 6.14672 29.7515 6.91185 29.7515 8.86522C29.7515 10.2175 28.9046 11.5298 27.4976 11.7201Z" fill="#EC111A"/>
</svg>
