<svg width="445" height="643" viewBox="0 0 445 643" fill="none" xmlns="http://www.w3.org/2000/svg">
<path fill-rule="evenodd" clip-rule="evenodd" d="M117.603 3.96637C111.902 12.5861 105.106 25.6053 99.2392 39.1456C97.9948 42.0183 96.5784 45.2588 96.0919 46.3462C91.5278 56.5481 79.4891 89.162 76.1135 100.47C73.7341 108.44 70.3372 122.569 68.8643 130.621C68.6404 131.844 68.0945 134.735 67.6511 137.046C66.3641 143.751 63.95 158.444 62.9002 165.961C62.3692 169.767 61.6796 174.622 61.368 176.749C61.0564 178.875 60.7755 182.323 60.7438 184.41C60.6903 187.943 60.7596 188.214 61.7578 188.356C62.4598 188.456 66.046 186.408 72.1612 182.414C80.7787 176.787 85.6544 173.627 108.984 158.547C113.61 155.557 122.54 149.774 128.829 145.696C135.117 141.618 143.408 136.246 147.252 133.758C151.433 131.053 154.555 129.342 155.022 129.501C155.452 129.648 157.326 131.239 159.187 133.037C164.285 137.961 185.505 160.771 185.678 161.514C186.063 163.163 184.257 162.438 176.79 157.946C172.37 155.286 168.18 152.775 167.48 152.366C165.409 151.155 158.416 146.795 156.6 145.582C155.677 144.965 154.426 144.46 153.82 144.46C152.05 144.46 140.258 152.766 90.9056 188.771C39.618 226.189 33.5578 230.532 33.1758 230.14C32.3763 229.32 31.5707 191.541 31.9076 170.657C32.5051 133.587 35.1703 105.271 40.6767 77.4857C42.6796 67.3772 45.7193 55.4108 48.0214 48.5705C49.8064 43.2674 50.0025 42.1399 49.1391 42.1478C48.2434 42.1562 41.9791 54.8191 38.5048 63.6459C28.7237 88.4943 21.7594 116.675 16.8837 151.133C10.8284 193.931 8.01951 234.332 9.36055 259.355C9.97584 270.834 10.4262 273.22 11.9797 273.22C12.975 273.22 18.1995 269.126 53.2514 240.882C79.235 219.944 85.6162 214.793 98.5843 204.283C126.43 181.715 152.18 161.617 153.977 161.048C155.367 160.608 159.944 162.492 172.522 168.682C183.449 174.06 185.156 175.458 180.201 174.974C177.366 174.697 164.382 172.914 160.014 172.202C158.237 171.912 156.945 171.935 156.298 172.267C154.931 172.971 146.553 180.19 117.162 205.987C112.802 209.813 104.554 217.048 98.832 222.066C93.1101 227.083 88.1854 231.415 87.8876 231.691C87.5899 231.968 81.8091 237.088 75.041 243.069C46.3728 268.402 23.903 288.566 9.04102 302.297L0.32138 310.354C0.116503 310.543 0 310.809 0 311.088V312.921C0 317.695 3.42419 344.169 6.46792 362.931C18.7459 438.605 41.1443 502.409 69.6193 542.821C74.1329 549.227 83.5415 561.461 84.3267 561.945C85.4929 562.664 85.0961 561.398 82.999 557.712C71.4949 537.483 57.1526 501.472 50.011 474.885C46.5407 461.966 45.6069 458.156 43.2884 447.452C41.9261 441.162 41.6382 439.622 40.1501 430.647C39.5868 427.249 38.9145 423.245 38.6569 421.75C37.4977 415.026 35.0177 391.912 34.1944 380.158C33.5617 371.131 33.5543 334.282 34.184 329.446C34.4406 327.476 34.986 325.217 35.3962 324.425C36.4683 322.357 49.3318 307.994 77.2821 277.657C82.0504 272.482 89.7221 264.139 94.3298 259.118C98.938 254.097 103.849 248.765 105.243 247.27C106.636 245.775 110.78 241.215 114.45 237.137C118.12 233.06 121.244 229.612 121.392 229.476C121.981 228.936 141.002 207.343 149.955 197.049C155.899 190.216 160.021 185.892 160.96 185.504C163.172 184.589 184.373 185.906 185.05 186.999C185.412 187.582 185.041 187.745 176.022 190.955C171.47 192.576 167.288 194.202 166.728 194.57C166.168 194.938 159.152 205.556 151.136 218.165C143.12 230.775 135.842 242.204 134.962 243.563C133.09 246.457 99.4022 300.167 93.1086 310.29C90.7431 314.096 84.5422 323.977 79.3291 332.247C73.7762 341.057 69.8512 347.779 69.8512 348.481C69.8512 349.966 73.0688 378.911 74.0952 386.656C78.4513 419.539 82.5111 439.904 91.3881 473.402C94.4209 484.846 102.863 513.206 106.102 522.83C118.765 560.458 133.797 593.74 156.724 634.908C158.806 638.646 160.509 641.927 160.509 642.198C160.509 642.47 160.732 642.692 161.004 642.692C161.277 642.692 161.5 642.55 161.5 642.377C161.5 642.204 159.955 638.034 158.067 633.11C151.285 615.422 138.576 577.984 135.731 567.315C135.514 566.499 134.75 563.941 134.033 561.631C133.317 559.32 132.308 555.872 131.791 553.969C130.929 550.788 129.313 544.977 126.844 536.175C126.034 533.287 122.973 521.361 122.15 517.887C122.021 517.343 121.247 514.118 120.43 510.72C115.158 488.783 110.117 463.235 107.752 446.464C105.539 430.769 103.081 402.126 101.772 376.771C100.621 354.48 100.474 355.656 105.744 344.89C108.14 339.997 111.157 333.769 112.45 331.05C115.178 325.313 130.752 293.096 145.902 261.851C165.305 221.837 172.433 207.508 173.535 206.308C175.421 204.254 184.869 198.278 185.981 198.436C186.634 198.53 187.425 199.401 188.133 200.808C189.521 203.562 193.701 212.689 193.701 212.964C193.701 213.075 190.175 218.448 185.865 224.904C174.748 241.558 174.72 241.613 174.465 246.928C174.017 256.273 177.137 279.781 182.346 306.308C189.894 344.749 197.197 370.246 207.836 395.297L207.894 395.433C208.203 396.16 209.22 396.198 209.582 395.495C210.734 393.254 213.56 390.766 216.464 389.434C219.881 387.868 225.266 388.022 228.954 389.79C231.528 391.025 234.228 393.472 235.628 395.84C235.936 396.362 236.345 396.64 236.537 396.459C237.75 395.307 245.117 375.195 249.179 361.942C251.21 355.318 256.627 334.799 257.596 330.062C257.874 328.702 258.434 326.144 258.841 324.377C259.562 321.239 264.058 298.638 265.035 293.238C265.51 290.614 266.553 284.322 267.534 278.162C269.411 266.379 270.711 251.898 270.39 246.361C270.112 241.572 269.814 241.01 259.029 224.902C254.705 218.443 251.167 213.072 251.167 212.964C251.167 212.857 252.031 210.911 253.089 208.642C254.145 206.372 255.504 203.363 256.107 201.955C258.024 197.48 258.265 197.429 263.221 200.433C271.668 205.553 271.02 204.653 281.276 225.491C286.302 235.702 291.59 246.504 293.028 249.494C294.465 252.485 297.7 259.157 300.216 264.323C302.733 269.488 306.295 276.828 308.132 280.634C309.969 284.44 314.54 293.893 318.289 301.641C322.04 309.388 326.498 318.619 328.197 322.153C329.897 325.687 334.031 334.251 337.383 341.183C342.219 351.181 343.527 354.331 343.707 356.42C344.331 363.62 341.424 408.754 338.815 432.377C335.692 460.649 327.774 500.384 318.525 534.198C317.484 538.004 316.188 542.786 315.644 544.825C314.315 549.802 309.875 565.281 308.98 568.056C308.585 569.28 307.44 572.95 306.434 576.212C301.132 593.414 291.078 622.315 285.026 637.749C283.588 641.417 283.003 643.898 283.862 642.692C284.152 642.284 286.304 638.503 288.645 634.289C305.386 604.149 317.326 579.3 328.307 551.745C334.363 536.55 343.34 510.326 345.65 501.082C345.786 500.538 346.335 498.647 346.871 496.88C347.741 494.005 351.491 480.799 353.467 473.649C354.978 468.183 357.109 459.924 358.377 454.62C359.092 451.629 359.998 447.848 360.39 446.217C362.418 437.782 363.817 430.666 367.341 410.876C368.65 403.528 371.376 382.975 373.077 367.627C373.378 364.908 373.938 360.135 374.321 357.02C375.527 347.201 376.414 349.552 364.051 329.793C354.5 314.527 350.531 308.205 342.657 295.709C339.601 290.86 317.452 255.542 314.914 251.471C304.393 234.596 279.578 195.906 278.726 195.053C278.14 194.464 274.367 192.843 270.24 191.405C266.153 189.982 262.196 188.602 261.447 188.339C260.697 188.075 260.084 187.577 260.084 187.23C260.084 186.39 262.031 186.129 273.549 185.426C282.347 184.889 283.417 184.91 284.525 185.634C285.2 186.076 289.281 190.504 293.593 195.476C311.028 215.576 328.656 235.268 349.256 257.652C362.132 271.644 385.579 297.172 392.611 304.853C402.638 315.808 408.909 323.252 409.806 325.267C410.625 327.104 410.81 329.264 411.173 341.218C411.556 353.811 411.202 374.163 410.43 384.034C409.928 390.445 408.712 402.995 408.236 406.675C407.989 408.578 407.524 412.248 407.202 414.83C404.644 435.342 398.005 466.013 392.114 484.523C389.927 491.399 385.328 505.177 384.939 506.024C384.689 506.568 383.912 508.646 383.213 510.641C379.004 522.649 367.693 547.622 361.707 558.126C356.778 566.774 363.092 560.462 371.781 548.054C389.858 522.242 404.864 491.301 416.426 456.002C426.451 425.397 435.506 385.497 440.67 349.167C442.225 338.224 444.208 321.51 444.654 315.576L444.965 311.443C444.987 311.147 444.877 310.857 444.663 310.65L441.719 307.798C438.097 304.289 418.351 286.214 410.19 278.937C407.329 276.386 401.198 270.914 396.566 266.777C385.693 257.066 373.643 246.349 369.288 242.516C367.398 240.853 361.716 235.848 356.662 231.395C332.209 209.85 316.78 196.318 304.885 185.988C299.726 181.507 295.394 177.726 295.257 177.585C294.319 176.618 289.377 172.692 288.57 172.272C287.927 171.939 286.621 171.909 284.854 172.187C277.187 173.397 264.626 175.109 263.428 175.108C262.635 175.107 262.066 174.835 262.066 174.457C262.066 173.751 285.302 162.186 288.623 161.238C290.382 160.736 290.853 160.779 292.091 161.554C296.179 164.116 323.128 185.484 366.842 220.828C395.386 243.905 416.39 260.776 425.152 267.662C432.681 273.58 433.996 274.152 434.689 271.815C435.366 269.527 435.966 248.899 435.683 237.632C435.519 231.107 434.949 219.652 434.417 212.176C433.094 193.575 432.935 191.898 430.518 170.904C429.773 164.438 428.108 151.925 427.258 146.403C426.821 143.567 426.275 140.024 426.044 138.529C425.813 137.034 425.402 134.698 425.13 133.339C424.858 131.98 424.373 129.422 424.052 127.655C419.932 104.971 413.708 82.3652 406.634 64.3874C403.504 56.4315 398.036 45.0735 396.401 43.1334L396.082 42.7539C395.833 42.458 395.35 42.6301 395.344 43.0168C395.335 43.6321 395.544 44.5218 395.808 44.9939C396.888 46.9216 401.935 65.3255 403.499 73.0372C410.374 106.927 412.851 135.022 412.89 179.554C412.915 207.225 412.362 229.794 411.649 230.234C411.301 230.449 408.794 228.694 394.333 218.108C391.919 216.341 385.526 211.694 380.127 207.782C374.728 203.87 368.642 199.422 366.603 197.897C364.564 196.372 362.409 194.79 361.813 194.382C360.124 193.226 345.105 182.362 344.55 181.895C344.277 181.666 340.153 178.652 335.385 175.198C330.616 171.744 325.672 168.142 324.398 167.193C323.124 166.244 320.051 164.021 317.57 162.254C315.089 160.487 311.673 158.031 309.979 156.797C301.284 150.459 292.246 144.46 291.391 144.46C290.495 144.46 287.682 146.094 267.654 158.25C260.686 162.48 258.798 163.206 259.19 161.507C259.361 160.764 281.679 136.818 286.249 132.474C287.943 130.863 289.69 129.632 290.28 129.632C290.852 129.632 295.159 132.141 299.853 135.207C304.546 138.274 312.68 143.556 317.929 146.947C353.379 169.843 362.093 175.483 372.72 182.412C378.763 186.351 382.44 188.452 383.124 188.354C384.57 188.149 384.715 185.778 383.723 178.565C383.293 175.439 382.709 171.102 382.425 168.927C381.351 160.706 378.819 145.393 376.704 134.328C372.573 112.709 368.922 99.3071 362.229 81.1928C361.676 79.6976 360.295 75.9164 359.16 72.7901C355.31 62.1923 348.402 45.1669 344.757 37.2911C343.962 35.5729 343.311 34.0644 343.311 33.9379C343.311 33.8118 341.17 29.4345 338.554 24.2105C334.435 15.9877 327.616 3.97823 325.303 0.87367C323.422 -1.6511 324.147 1.32939 327.371 9.38513C341.184 43.8862 350.407 79.2211 355.164 115.862C356.175 123.641 356.575 126.963 357.929 138.776C359.412 151.711 359.602 153.204 359.929 154.504C360.161 155.426 360.068 155.829 359.625 155.829C359.045 155.829 352.979 152.032 326.8 135.283C321.943 132.175 317.763 129.632 317.512 129.632C317.261 129.632 317.055 129.41 317.055 129.138C317.055 128.866 316.848 128.643 316.596 128.643C316.344 128.643 314.839 127.782 313.252 126.731C311.665 125.678 308.695 123.748 306.652 122.439C304.608 121.131 302.008 119.435 300.874 118.668C299.739 117.902 298.72 117.275 298.609 117.275C298.499 117.275 296.544 116.052 294.267 114.557C291.989 113.061 289.71 111.838 289.203 111.838C288.276 111.838 272.851 127.249 260.382 140.63C252.567 149.017 252.075 149.208 253.708 143.225C254.228 141.322 254.705 138.541 254.768 137.046C254.868 134.668 254.653 133.957 253.046 131.362C250.554 127.338 245.202 121.3 240.467 117.172C236.402 113.627 232.505 111.017 232.012 111.508C231.856 111.664 232.536 112.89 233.524 114.233C236.836 118.734 239.277 125.485 239.277 130.141C239.277 132.921 238.101 137.05 236.879 138.555L236.329 139.233C236.109 139.503 235.765 139.64 235.42 139.593L229.251 138.766C223.331 137.972 221.943 137.94 217.65 138.496C214.968 138.843 211.753 139.239 210.505 139.377L208.966 139.547C208.532 139.595 208.117 139.356 207.941 138.956L207.068 136.977C204.194 130.458 206.12 120.682 211.659 113.669C215.976 108.203 207.703 113.523 200.553 120.812C195.539 125.921 191.972 130.482 190.606 133.527C189.737 135.463 189.695 136.012 190.215 138.717C190.535 140.381 191.115 142.839 191.505 144.18C191.896 145.52 192.215 146.799 192.215 147.022C192.215 148.385 190.101 146.634 184.5 140.63C172.394 127.653 156.627 111.838 155.794 111.838C155.126 111.838 135.67 123.89 130.241 127.667C129.532 128.16 127.526 129.443 125.782 130.519C124.038 131.595 117.595 135.675 111.465 139.587C105.334 143.498 98.5768 147.807 96.4481 149.163C94.3199 150.518 91.1379 152.572 89.3773 153.728C85.7153 156.131 84.4332 156.414 84.9093 154.717C85.0807 154.105 85.9957 146.932 86.9419 138.776C89.5997 115.866 89.6389 115.563 91.6319 102.447C93.8844 87.6214 100.462 58.3705 103.525 49.559C103.761 48.8794 104.342 46.9888 104.817 45.3577C107.764 35.2215 113.167 19.9137 117.291 10.0168C120.667 1.91462 121.258 0.128301 120.564 0.135715C120.327 0.138186 118.995 1.86223 117.603 3.96637Z" fill="#F8FBFF"/>
</svg>
